<svg version="1.1" viewBox="0.0 0.0 1234.4356955380576 397.7191601049869" fill="none" stroke="none"
     stroke-linecap="square" stroke-miterlimit="10"
     xmlns="http://www.w3.org/2000/svg"><clipPath id="p.0"><path d="m0 0l1234.4357 0l0 397.71915l-1234.4357 0l0 -397.71915z" clip-rule="nonzero"/></clipPath><g clip-path="url(#p.0)"><path fill="#000000" fill-opacity="0.0" d="m0 0l1234.4357 0l0 397.71915l-1234.4357 0z" fill-rule="evenodd"/><path fill="#000000" fill-opacity="0.0" d="m-11.908136 52.207355l0 0c0 -36.410934 29.516893 -65.927826 65.927826 -65.927826l1429.7192 0c17.485107 0 34.25415 6.9459476 46.61792 19.309814c12.363892 12.363866 19.309814 29.13287 19.309814 46.618015l0 263.7034c0 36.41092 -29.516846 65.927826 -65.927734 65.927826l-1429.7192 0c-36.410934 0 -65.927826 -29.516907 -65.927826 -65.927826z" fill-rule="evenodd"/><path fill="#000000" fill-opacity="0.0" d="m19.475065 12.769029l1214.9606 0l0 342.58267l-1214.9606 0z" fill-rule="evenodd"/><path fill="#000000" fill-opacity="0.0" d="m28.475065 82.02124l146.60886 0l0 312.22742l-146.60886 0l0 -312.22742z" fill-rule="nonzero"/><path fill="#81b29a" d="m158.80319 130.98225l-71.34375 149.07814l-25.90625 0l74.078125 -149.07814l-91.921875 0l0 -21.09375l115.09375 0l0 21.09375z" fill-rule="nonzero"/><path fill="#010000" fill-opacity="0.0" d="m175.08392 82.02124l439.82654 0l0 312.22742l-439.82654 0l0 -312.22742z" fill-rule="nonzero"/><path fill="#f2cc8f" d="m307.6308 212.35725q0 16.265625 -4.5 29.09375q-4.484375 12.828125 -12.75 21.750015q-8.265625 8.921875 -20.125 13.671875q-11.84375 4.75 -26.6875 4.75q-11.578125 0 -23.6875 -2.203125q-12.109375 -2.21875 -23.96875 -7.046875l0 -176.29689l22.65625 0l0 50.65625l-1.03125 24.21875q9.765625 -13.15625 20.890625 -18.546875q11.125 -5.40625 23.890625 -5.40625q11.203125 0 19.65625 4.6875q8.46875 4.6875 14.1875 13.21875q5.734375 8.515625 8.59375 20.5625q2.875 12.046875 2.875 26.890625zm-23.171875 1.03125q0 -10.28125 -1.5 -18.875q-1.5 -8.59375 -4.765625 -14.703125q-3.25 -6.125 -8.328125 -9.578125q-5.078125 -3.453125 -12.109375 -3.453125q-4.296875 0 -8.71875 1.375q-4.421875 1.359375 -9.171875 4.5625q-4.75 3.1875 -10.03125 8.46875q-5.265625 5.265625 -11.265625 13.078125l0 63.406265q6.640625 2.59375 13.546875 4.09375q6.90625 1.5 13.140625 1.5q7.8125 0 14.90625 -2.46875q7.109375 -2.484375 12.5 -8.26564q5.40625 -5.796875 8.59375 -15.359375q3.203125 -9.578125 3.203125 -23.78125zm102.59323 -45.296875l-38.671875 0l0 -18.75l61.59375 0l0 111.843765l38.921875 0l0 18.875l-104.8125 0l0 -18.875l42.96875 0l0 -93.093765zm7.9375 -73.578125q3.78125 0 7.03125 1.375q3.265625 1.359375 5.671875 3.84375q2.40625 2.46875 3.765625 5.65625q1.375 3.1875 1.375 6.96875q0 3.640625 -1.375 6.90625q-1.359375 3.25 -3.765625 5.734375q-2.40625 2.46875 -5.671875 3.84375q-3.25 1.359375 -7.03125 1.359375q-3.765625 0 -7.03125 -1.359375q-3.25 -1.375 -5.65625 -3.84375q-2.40625 -2.484375 -3.78125 -5.734375q-1.359375 -3.265625 -1.359375 -6.90625q0 -3.78125 1.359375 -6.96875q1.375 -3.1875 3.78125 -5.65625q2.40625 -2.484375 5.65625 -3.84375q3.265625 -1.375 7.03125 -1.375zm199.4838 183.71877q-7.6875 1.953125 -15.890625 2.796875q-8.203125 0.859375 -16.671875 0.859375q-24.609375 0 -36.71869 -11.125q-12.09375 -11.140625 -12.09375 -34.187515l0 -68.234375l-36.59375 0l0 -19.0l36.59375 0l0 -35.9375l22.640564 -5.859375l0 41.796875l58.734375 0l0 19.0l-58.734375 0l0 66.40625q0 14.0625 7.484375 21.03125q7.5 6.9687653 22.078125 6.9687653q6.25 0 13.671875 -0.96875q7.421875 -0.984375 15.5 -3.078125l0 19.53125z" fill-rule="nonzero"/><path fill="#000000" fill-opacity="0.0" d="m614.91046 82.02124l586.4355 0l0 312.22742l-586.4355 0l0 -312.22742z" fill-rule="nonzero"/><path fill="#e07a5f" d="m744.45734 273.6854q-20.4375 8.453125 -42.828125 8.453125q-36.0625 0 -55.40625 -21.546875q-19.328125 -21.54689 -19.328125 -63.73439q0 -20.4375 5.328125 -36.96875q5.34375 -16.546875 15.234375 -28.0625q9.90625 -11.53125 23.953125 -17.78125q14.0625 -6.25 31.515625 -6.25q11.84375 0 22.0 2.03125q10.15625 2.015625 19.53125 6.171875l0 22.796875q-9.234375 -5.078125 -19.140625 -7.75q-9.890625 -2.671875 -21.609375 -2.671875q-11.984375 0 -21.6875 4.5q-9.6875 4.484375 -16.46875 13.015625q-6.765625 8.53125 -10.40625 20.84375q-3.640625 12.296875 -3.640625 28.046875q0 33.0625 13.40625 49.859375q13.40625 16.79689 39.3125 16.79689q10.9375 0 20.96875 -2.53125q10.03125 -2.546875 19.265625 -7.0937653l0 21.875015zm151.68701 -60.031265q0 15.234375 -4.296875 27.9375q-4.296875 12.6875 -12.375 21.73439q-8.0625 9.046875 -19.65625 14.0625q-11.578125 5.015625 -26.296875 5.015625q-14.0625 0 -25.203125 -4.359375q-11.125 -4.359375 -18.875 -12.828125q-7.734375 -8.46875 -11.84375 -20.968765q-4.09375 -12.5 -4.09375 -28.765625q0 -15.234375 4.296875 -27.796875q4.296875 -12.5625 12.359375 -21.609375q8.078125 -9.0625 19.65625 -14.0625q11.59375 -5.015625 26.3125 -5.015625q14.0625 0 25.1875 4.359375q11.140625 4.359375 18.875 12.765625q7.75 8.390625 11.84375 20.890625q4.109375 12.5 4.109375 28.640625zm-23.171875 1.046875q0 -12.109375 -2.671875 -21.15625q-2.671875 -9.046875 -7.625 -15.09375q-4.9375 -6.0625 -12.03125 -9.125q-7.09375 -3.0625 -15.828125 -3.0625q-10.140625 0 -17.375 3.96875q-7.21875 3.96875 -11.84375 10.609375q-4.625 6.640625 -6.78125 15.4375q-2.140625 8.78125 -2.140625 18.421875q0 12.109375 2.671875 21.21875q2.671875 9.109375 7.609375 15.171875q4.953125 6.0468903 11.984375 9.10939q7.03125 3.0625 15.875 3.0625q10.15625 0 17.375 -3.96875q7.234375 -3.9687653 11.859375 -10.60939q4.625 -6.640625 6.765625 -15.421875q2.15625 -8.796875 2.15625 -18.5625zm55.983826 -65.359375l20.1875 0l0.90625 21.09375q5.734375 -6.78125 11.0625 -11.265625q5.34375 -4.5 10.484375 -7.234375q5.140625 -2.734375 10.484375 -3.828125q5.34375 -1.109375 11.0625 -1.109375q20.1875 0 30.53125 11.921875q10.359375 11.90625 10.359375 35.859375l0 85.281265l-22.65625 0l0 -83.45314q0 -15.375 -5.734375 -22.71875q-5.71875 -7.359375 -17.046875 -7.359375q-4.171875 0 -8.140625 1.234375q-3.96875 1.234375 -8.265625 4.296875q-4.296875 3.0625 -9.3125 8.265625q-5.015625 5.203125 -11.265625 13.015625l0 86.718765l-22.65625 0l0 -130.71877zm262.6245 -32.171875q-17.84375 -3.765625 -30.734375 -3.765625q-30.59375 0 -30.59375 32.03125l0 22.90625l57.296875 0l0 18.890625l-57.296875 0l0 92.82814l-23.046875 0l0 -92.82814l-42.046875 0l0 -18.890625l42.046875 0l0 -21.609375q0 -52.21875 54.421875 -52.21875q13.546875 0 29.953125 3.125l0 19.53125zm-136.84375 32.171875l0 0z" fill-rule="nonzero"/><path fill="#010000" fill-opacity="0.0" d="m1201.346 82.02124l0 0l0 312.22742l0 0l0 -312.22742z" fill-rule="nonzero"/><path fill="#81b29a" d="m28.475065 297.3937l146.60886 0l0 24.0l-146.60886 0l0 -24.0z" fill-rule="nonzero"/><path fill="#f2cc8f" d="m175.08392 297.3937l439.82654 0l0 24.0l-439.82654 0l0 -24.0z" fill-rule="nonzero"/><path fill="#e07a5f" d="m614.91046 297.3937l586.4355 0l0 24.0l-586.4355 0l0 -24.0z" fill-rule="nonzero"/></g></svg>