<svg version="1.1" viewBox="0.0 0.0 1509.9002624671916 396.7007874015748" fill="none" stroke="none" stroke-linecap="square" stroke-miterlimit="10" xmlns:xlink="http://www.w3.org/1999/xlink" xmlns="http://www.w3.org/2000/svg"><clipPath id="p.0"><path d="m0 0l1509.9003 0l0 396.70078l-1509.9003 0l0 -396.70078z" clip-rule="nonzero"/></clipPath><g clip-path="url(#p.0)"><path fill="#000000" fill-opacity="0.0" d="m0 0l1509.9003 0l0 396.70078l-1509.9003 0z" fill-rule="evenodd"/><path fill="#000000" fill-opacity="0.0" d="m0 65.927826l0 0c0 -36.410934 29.516893 -65.927826 65.927826 -65.927826l1429.7191 0c17.485107 0 34.25415 6.9459476 46.618042 19.309814c12.363892 12.363865 19.309814 29.132866 19.309814 46.61801l0 263.7034c0 36.41095 -29.516968 65.927826 -65.92786 65.927826l-1429.7191 0c-36.410934 0 -65.927826 -29.516876 -65.927826 -65.927826z" fill-rule="evenodd"/><path fill="#000000" fill-opacity="0.0" d="m0 0l1561.5748 0l0 342.58267l-1561.5748 0z" fill-rule="evenodd"/><path fill="#81b29a" d="m139.32812 118.21323l-71.34375 149.07812l-25.90625 0l74.078125 -149.07812l-91.921875 0l0 -21.09375l115.09375 0l0 21.09375z" fill-rule="nonzero"/><path fill="#f2cc8f" d="m288.15573 199.58823q0 16.265625 -4.5 29.09375q-4.484375 12.828125 -12.75 21.75q-8.265625 8.921875 -20.125 13.671875q-11.84375 4.75 -26.6875 4.75q-11.578125 0 -23.6875 -2.203125q-12.109375 -2.21875 -23.96875 -7.046875l0 -176.29688l22.65625 0l0 50.65625l-1.03125 24.21875q9.765625 -13.15625 20.890625 -18.546875q11.125 -5.40625 23.890625 -5.40625q11.203125 0 19.65625 4.6875q8.46875 4.6875 14.1875 13.21875q5.734375 8.515625 8.59375 20.5625q2.875 12.046875 2.875 26.890625zm-23.171875 1.03125q0 -10.28125 -1.5 -18.875q-1.5 -8.59375 -4.765625 -14.703125q-3.25 -6.125 -8.328125 -9.578125q-5.078125 -3.453125 -12.109375 -3.453125q-4.296875 0 -8.71875 1.375q-4.421875 1.359375 -9.171875 4.5625q-4.75 3.1875 -10.03125 8.46875q-5.265625 5.265625 -11.265625 13.078125l0 63.40625q6.640625 2.59375 13.546875 4.09375q6.90625 1.5 13.140625 1.5q7.8125 0 14.90625 -2.46875q7.109375 -2.484375 12.5 -8.265625q5.40625 -5.796875 8.59375 -15.359375q3.203125 -9.578125 3.203125 -23.78125zm102.59323 -45.296875l-38.671875 0l0 -18.75l61.59375 0l0 111.84375l38.921875 0l0 18.875l-104.8125 0l0 -18.875l42.96875 0l0 -93.09375zm7.9375 -73.578125q3.78125 0 7.03125 1.375q3.265625 1.359375 5.671875 3.84375q2.40625 2.46875 3.765625 5.65625q1.375 3.1875 1.375 6.96875q0 3.640625 -1.375 6.90625q-1.359375 3.25 -3.765625 5.734375q-2.40625 2.46875 -5.671875 3.84375q-3.25 1.359375 -7.03125 1.359375q-3.765625 0 -7.03125 -1.359375q-3.25 -1.375 -5.65625 -3.84375q-2.40625 -2.484375 -3.78125 -5.734375q-1.359375 -3.265625 -1.359375 -6.90625q0 -3.78125 1.359375 -6.96875q1.375 -3.1875 3.78125 -5.65625q2.40625 -2.484375 5.65625 -3.84375q3.265625 -1.375 7.03125 -1.375zm199.48383 183.71875q-7.6875 1.953125 -15.890625 2.796875q-8.203125 0.859375 -16.671875 0.859375q-24.609375 0 -36.71872 -11.125q-12.09375 -11.140625 -12.09375 -34.1875l0 -68.234375l-36.59375 0l0 -19.0l36.59375 0l0 -35.9375l22.640594 -5.859375l0 41.796875l58.734375 0l0 19.0l-58.734375 0l0 66.40625q0 14.0625 7.484375 21.03125q7.5 6.96875 22.078125 6.96875q6.25 0 13.671875 -0.96875q7.421875 -0.984375 15.5 -3.078125l0 19.53125z" fill-rule="nonzero"/><path fill="#e07a5f" d="m724.9823 260.91635q-20.4375 8.453125 -42.828125 8.453125q-36.0625 0 -55.40625 -21.546875q-19.328125 -21.546875 -19.328125 -63.734375q0 -20.4375 5.328125 -36.96875q5.34375 -16.546875 15.234375 -28.0625q9.90625 -11.53125 23.953125 -17.78125q14.0625 -6.25 31.515625 -6.25q11.84375 0 22.0 2.03125q10.15625 2.015625 19.53125 6.171875l0 22.796875q-9.234375 -5.078125 -19.140625 -7.75q-9.890625 -2.671875 -21.609375 -2.671875q-11.984375 0 -21.6875 4.5q-9.6875 4.484375 -16.46875 13.015625q-6.765625 8.53125 -10.40625 20.84375q-3.640625 12.296875 -3.640625 28.046875q0 33.0625 13.40625 49.859375q13.40625 16.796875 39.3125 16.796875q10.9375 0 20.96875 -2.53125q10.03125 -2.546875 19.265625 -7.09375l0 21.875zm151.68701 -60.03125q0 15.234375 -4.296875 27.9375q-4.296875 12.6875 -12.375 21.734375q-8.0625 9.046875 -19.65625 14.0625q-11.578125 5.015625 -26.296875 5.015625q-14.0625 0 -25.203125 -4.359375q-11.125 -4.359375 -18.875 -12.828125q-7.734375 -8.46875 -11.84375 -20.96875q-4.09375 -12.5 -4.09375 -28.765625q0 -15.234375 4.296875 -27.796875q4.296875 -12.5625 12.359375 -21.609375q8.078125 -9.0625 19.65625 -14.0625q11.59375 -5.015625 26.3125 -5.015625q14.0625 0 25.1875 4.359375q11.140625 4.359375 18.875 12.765625q7.75 8.390625 11.84375 20.890625q4.109375 12.5 4.109375 28.640625zm-23.171875 1.046875q0 -12.109375 -2.671875 -21.15625q-2.671875 -9.046875 -7.625 -15.09375q-4.9375 -6.0625 -12.03125 -9.125q-7.09375 -3.0625 -15.828125 -3.0625q-10.140625 0 -17.375 3.96875q-7.21875 3.96875 -11.84375 10.609375q-4.625 6.640625 -6.78125 15.4375q-2.140625 8.78125 -2.140625 18.421875q0 12.109375 2.671875 21.21875q2.671875 9.109375 7.609375 15.171875q4.953125 6.046875 11.984375 9.109375q7.03125 3.0625 15.875 3.0625q10.15625 0 17.375 -3.96875q7.234375 -3.96875 11.859375 -10.609375q4.625 -6.640625 6.765625 -15.421875q2.15625 -8.796875 2.15625 -18.5625zm55.983826 -65.359375l20.1875 0l0.90625 21.09375q5.734375 -6.78125 11.0625 -11.265625q5.34375 -4.5 10.484375 -7.234375q5.140625 -2.734375 10.484375 -3.828125q5.34375 -1.109375 11.0625 -1.109375q20.1875 0 30.53125 11.921875q10.359375 11.90625 10.359375 35.859375l0 85.28125l-22.65625 0l0 -83.453125q0 -15.375 -5.734375 -22.71875q-5.71875 -7.359375 -17.046875 -7.359375q-4.171875 0 -8.140625 1.234375q-3.96875 1.234375 -8.265625 4.296875q-4.296875 3.0625 -9.3125 8.265625q-5.015625 5.203125 -11.265625 13.015625l0 86.71875l-22.65625 0l0 -130.71875zm262.62445 -32.171875q-17.84375 -3.765625 -30.734375 -3.765625q-30.59375 0 -30.59375 32.03125l0 22.90625l57.296875 0l0 18.890625l-57.296875 0l0 92.828125l-23.046875 0l0 -92.828125l-42.046875 0l0 -18.890625l42.046875 0l0 -21.609375q0 -52.21875 54.421875 -52.21875q13.546875 0 29.953125 3.125l0 19.53125zm-136.84375 32.171875l0 0zm211.96826 18.75l-38.671875 0l0 -18.75l61.59375 0l0 111.84375l38.921875 0l0 18.875l-104.8125 0l0 -18.875l42.96875 0l0 -93.09375zm7.9375 -73.578125q3.78125 0 7.03125 1.375q3.265625 1.359375 5.671875 3.84375q2.40625 2.46875 3.765625 5.65625q1.375 3.1875 1.375 6.96875q0 3.640625 -1.375 6.90625q-1.359375 3.25 -3.765625 5.734375q-2.40625 2.46875 -5.671875 3.84375q-3.25 1.359375 -7.03125 1.359375q-3.765625 0 -7.03125 -1.359375q-3.25 -1.375 -5.65625 -3.84375q-2.40625 -2.484375 -3.78125 -5.734375q-1.359375 -3.265625 -1.359375 -6.90625q0 -3.78125 1.359375 -6.96875q1.375 -3.1875 3.78125 -5.65625q2.40625 -2.484375 5.65625 -3.84375q3.265625 -1.375 7.03125 -1.375zm188.28076 73.3125q3.640625 4.5625 5.65625 10.625q2.03125 6.046875 2.03125 13.078125q0 10.15625 -3.71875 18.546875q-3.703125 8.390625 -10.484375 14.390625q-6.765625 5.984375 -16.203125 9.3125q-9.4375 3.3125 -20.765625 3.3125q-8.203125 0 -15.375 -1.75q-7.15625 -1.765625 -11.3125 -4.375q-2.484375 3.65625 -4.171875 6.90625q-1.6875 3.25 -1.6875 7.296875q0 4.9375 4.75 8.203125q4.75 3.25 12.5625 3.515625l34.375 1.296875q9.765625 0.265625 18.03125 2.484375q8.265625 2.203125 14.1875 6.375q5.921875 4.15625 9.234375 10.28125q3.328125 6.125 3.328125 14.1875q0 8.734375 -3.78125 16.546875q-3.765625 7.8125 -11.640625 13.734375q-7.875 5.921875 -19.984375 9.4375q-12.109375 3.515625 -28.78125 3.515625q-15.875 0 -27.015625 -2.546875q-11.125 -2.53125 -18.296875 -7.03125q-7.15625 -4.484375 -10.421875 -10.671875q-3.25 -6.1875 -3.25 -13.609375q0 -9.5 4.421875 -16.671875q4.4375 -7.15625 13.6875 -13.796875q-3.390625 -1.5625 -5.875 -3.90625q-2.46875 -2.34375 -4.03125 -5.140625q-1.5625 -2.796875 -2.34375 -5.921875q-0.78125 -3.125 -0.78125 -6.125q0 -8.453125 3.96875 -15.484375q3.984375 -7.03125 9.453125 -13.28125q-2.484375 -3.0 -4.375 -5.859375q-1.875 -2.859375 -3.25 -6.171875q-1.359375 -3.328125 -2.078125 -7.171875q-0.71875 -3.84375 -0.71875 -8.796875q0 -10.15625 3.703125 -18.546875q3.71875 -8.40625 10.421875 -14.390625q6.703125 -5.984375 16.140625 -9.296875q9.453125 -3.328125 20.90625 -3.328125q4.8125 0 9.234375 0.65625q4.4375 0.640625 7.8125 1.6875l47.40625 0l0 18.484375l-20.96875 0zm-78.640625 131.10938q0 9.25 9.625 13.484375q9.640625 4.234375 26.828125 4.234375q10.8125 0 18.15625 -1.953125q7.359375 -1.953125 11.84375 -5.15625q4.5 -3.1875 6.453125 -7.296875q1.953125 -4.09375 1.953125 -8.390625q0 -7.9375 -6.515625 -11.71875q-6.5 -3.765625 -19.90625 -4.421875l-34.109375 -1.171875q-4.296875 2.859375 -7.109375 5.59375q-2.796875 2.734375 -4.359375 5.53125q-1.5625 2.8125 -2.21875 5.609375q-0.640625 2.796875 -0.640625 5.65625zm6.90625 -106.890625q0 6.25 2.078125 11.46875q2.078125 5.203125 5.859375 8.84375q3.78125 3.640625 8.921875 5.65625q5.140625 2.015625 11.390625 2.015625q6.765625 0 12.03125 -2.265625q5.28125 -2.28125 8.859375 -6.1875q3.578125 -3.90625 5.46875 -8.984375q1.890625 -5.078125 1.890625 -10.546875q0 -6.25 -2.09375 -11.453125q-2.078125 -5.21875 -5.859375 -8.859375q-3.765625 -3.640625 -8.90625 -5.65625q-5.140625 -2.03125 -11.390625 -2.03125q-6.765625 0 -12.046875 2.34375q-5.265625 2.34375 -8.859375 6.1875q-3.578125 3.84375 -5.46875 8.921875q-1.875 5.078125 -1.875 10.546875z" fill-rule="nonzero"/></g></svg>